<svg width="32" height="22" viewBox="0 0 32 22" fill="none" xmlns="http://www.w3.org/2000/svg">
<path d="M31.4439 6.00872C31.2387 4.92321 30.8198 3.89174 30.2129 2.97699C29.5944 2.0602 28.753 1.32431 27.7717 0.841975C26.5285 0.238997 25.161 -0.0467102 23.7864 0.00931851C22.4683 0.0180372 21.172 0.35512 20.0098 0.991427C18.7675 1.6642 17.761 2.71645 17.1304 4.0018C16.5649 2.78679 15.6935 1.74775 14.6057 0.991427C13.3745 0.278448 11.9708 -0.0621311 10.5578 0.00931851C9.67731 -0.00868213 8.80085 0.135967 7.97053 0.436322C7.23156 0.685824 6.52951 1.03782 5.884 1.48248C5.35697 1.84233 4.87973 2.27321 4.46516 2.76349C4.16247 3.0967 3.92831 3.48877 3.77661 3.9164V0.543073H0V15.1252H3.98526V10.8552C3.96044 9.78281 4.1157 8.71402 4.4443 7.69538C4.69786 6.90978 5.10221 6.18391 5.63362 5.56036C6.11241 4.99956 6.71257 4.56091 7.3863 4.27935C8.04328 3.98151 8.75425 3.82873 9.47282 3.831C10.2702 3.76548 11.07 3.92033 11.7889 4.27935C12.3582 4.61895 12.8159 5.12437 13.1034 5.73117C13.4324 6.39993 13.6442 7.12255 13.7293 7.86618C13.842 8.80114 13.8978 9.74237 13.8963 10.6844V21.936H17.8815V10.3001C17.8138 8.64628 18.2514 7.01197 19.1334 5.62441C19.6213 4.98442 20.2604 4.48202 20.9905 4.16454C21.7205 3.84705 22.5176 3.72492 23.3065 3.80965C24.0985 3.75867 24.8897 3.9206 25.6017 4.27935C26.1718 4.61028 26.6467 5.0889 26.9788 5.66711C27.3208 6.27857 27.5407 6.95351 27.6256 7.65268C27.7279 8.43821 27.7768 9.23008 27.7717 10.0225V22H31.7778V9.5315C31.7726 8.34923 31.6609 7.16997 31.4439 6.00872Z" fill="#2E2D29"/>
<path d="M4.07407 17.1111H0V21.1852H4.07407V17.1111Z" fill="#3B968B"/>
</svg>
