<svg width="883" height="779" viewBox="0 0 883 779" fill="none" xmlns="http://www.w3.org/2000/svg">
<g clip-path="url(#clip0_283_2)">
<path d="M342.362 20.0599L345.832 14.6979C344.803 11.8557 343.614 9.07381 342.272 6.36544L340.029 8.17749L341.805 5.43215C340.112 2.09965 338.78 0 338.78 0C338.78 0 331.822 10.9651 329.497 22.5747L333.949 29.4554L329.02 25.4744C328.845 26.8268 328.755 28.1889 328.75 29.5526C328.75 43.3022 333.241 54.4484 338.78 54.4484C344.319 54.4484 348.81 43.3022 348.81 29.5526C348.706 25.1781 347.932 20.8454 346.515 16.7053L342.362 20.0599Z" fill="#E6E6E6"/>
<path d="M366.921 31.9802L373.166 30.642C374.448 27.9047 375.575 25.0973 376.541 22.2331L373.673 21.928L376.87 21.2428C378.03 17.6893 378.572 15.2627 378.572 15.2627C378.572 15.2627 365.899 18.096 356.045 24.6613L354.328 32.6749L353.658 26.3748C352.578 27.2069 351.551 28.1062 350.583 29.0673C340.861 38.7897 336.154 49.8466 340.071 53.7635C343.988 57.6805 355.045 52.9742 364.768 43.2518C367.787 40.0851 370.304 36.4742 372.23 32.545L366.921 31.9802Z" fill="#E6E6E6"/>
<path d="M369.2 85.1838C354.719 86.1101 338.94 85.1299 322.154 85.1838V46.752C336.946 49.0546 352.719 48.8181 369.2 46.752V85.1838Z" fill="#E6E6E6"/>
<path d="M472.801 115.151L475.063 111.654C474.392 109.801 473.618 107.987 472.742 106.221L471.279 107.402L472.438 105.612C471.334 103.439 470.465 102.069 470.465 102.069C467.677 106.624 465.634 111.593 464.411 116.791L467.314 121.278L464.1 118.682C463.986 119.564 463.927 120.452 463.924 121.342C463.924 130.308 466.852 137.577 470.465 137.577C474.077 137.577 477.006 130.308 477.006 121.342C476.938 118.489 476.433 115.663 475.509 112.964L472.801 115.151Z" fill="#E6E6E6"/>
<path d="M488.818 122.925L492.89 122.052C493.726 120.267 494.461 118.436 495.091 116.568L493.221 116.369L495.306 115.922C496.062 113.605 496.416 112.022 496.416 112.022C491.225 113.272 486.266 115.341 481.726 118.152L480.606 123.378L480.169 119.269C479.464 119.812 478.794 120.398 478.163 121.025C471.823 127.365 468.754 134.576 471.308 137.13C473.863 139.685 481.073 136.616 487.414 130.275C489.383 128.21 491.024 125.855 492.28 123.293L488.818 122.925Z" fill="#E6E6E6"/>
<path d="M490.304 157.622C480.86 158.226 470.57 157.586 459.623 157.622V132.559C469.8 133.984 480.126 133.984 490.304 132.559V157.622Z" fill="#E6E6E6"/>
<path d="M484.472 231.898C476.133 232.432 467.047 231.867 457.381 231.898V209.768C466.367 211.026 475.485 211.026 484.472 209.768V231.898Z" fill="#E6E6E6"/>
<path d="M532.055 82.4814H167.508V92.6643H532.055V82.4814Z" fill="#E6E6E6"/>
<path d="M532.055 154.779H167.508V164.962H532.055V154.779Z" fill="#E6E6E6"/>
<path d="M532.055 227.078H167.508V237.261H532.055V227.078Z" fill="#E6E6E6"/>
<path d="M470.958 217.913C482.205 217.913 491.323 208.795 491.323 197.547C491.323 186.3 482.205 177.182 470.958 177.182C459.71 177.182 450.592 186.3 450.592 197.547C450.592 208.795 459.71 217.913 470.958 217.913Z" fill="#E6E6E6"/>
<path d="M470.959 213.84C479.957 213.84 487.251 206.546 487.251 197.547C487.251 188.549 479.957 181.255 470.959 181.255C461.96 181.255 454.666 188.549 454.666 197.547C454.666 206.546 461.96 213.84 470.959 213.84Z" fill="white"/>
<path d="M470.958 201.621C473.207 201.621 475.031 199.797 475.031 197.548C475.031 195.298 473.207 193.475 470.958 193.475C468.708 193.475 466.885 195.298 466.885 197.548C466.885 199.797 468.708 201.621 470.958 201.621Z" fill="#E6E6E6"/>
<path d="M485.215 198.566V196.529H468.922V198.566H485.215Z" fill="#E6E6E6"/>
<path d="M469.94 199.584H471.977V183.291H469.94V199.584Z" fill="#E6E6E6"/>
<path d="M353.2 105.104H339.725V158.443H353.2V105.104Z" fill="#E6E6E6"/>
<path d="M353.2 113.526H339.725V119.702H353.2V113.526Z" fill="#CCCCCC"/>
<path d="M353.2 140.477H339.725V146.653H353.2V140.477Z" fill="#CCCCCC"/>
<path d="M332.426 105.104H318.951V158.443H332.426V105.104Z" fill="#E6E6E6"/>
<path d="M332.426 113.526H318.951V119.702H332.426V113.526Z" fill="#CCCCCC"/>
<path d="M332.426 140.477H318.951V146.653H332.426V140.477Z" fill="#CCCCCC"/>
<path d="M364.81 104.884L352.734 110.862L376.4 158.663L388.476 152.685L364.81 104.884Z" fill="#E6E6E6"/>
<path d="M368.547 112.431L356.471 118.41L359.211 123.945L371.287 117.966L368.547 112.431Z" fill="#CCCCCC"/>
<path d="M380.506 136.584L368.43 142.562L371.17 148.097L383.246 142.119L380.506 136.584Z" fill="#CCCCCC"/>
<path d="M233.043 177.402H219.568V230.741H233.043V177.402Z" fill="#E6E6E6"/>
<path d="M233.043 185.824H219.568V192H233.043V185.824Z" fill="#CCCCCC"/>
<path d="M233.043 212.774H219.568V218.95H233.043V212.774Z" fill="#CCCCCC"/>
<path d="M212.268 177.402H198.793V230.741H212.268V177.402Z" fill="#E6E6E6"/>
<path d="M212.268 185.824H198.793V192H212.268V185.824Z" fill="#CCCCCC"/>
<path d="M212.268 212.774H198.793V218.95H212.268V212.774Z" fill="#CCCCCC"/>
<path d="M244.652 177.182L232.576 183.161L256.242 230.962L268.318 224.983L244.652 177.182Z" fill="#E6E6E6"/>
<path d="M248.391 184.729L236.314 190.708L239.055 196.243L251.131 190.264L248.391 184.729Z" fill="#CCCCCC"/>
<path d="M260.348 208.882L248.271 214.86L251.012 220.395L263.088 214.416L260.348 208.882Z" fill="#CCCCCC"/>
<path d="M359.311 177.402H345.836V230.741H359.311V177.402Z" fill="#E6E6E6"/>
<path d="M359.311 185.824H345.836V192H359.311V185.824Z" fill="#CCCCCC"/>
<path d="M359.311 212.774H345.836V218.95H359.311V212.774Z" fill="#CCCCCC"/>
<path d="M338.536 177.402H325.061V230.741H338.536V177.402Z" fill="#E6E6E6"/>
<path d="M338.536 185.824H325.061V192H338.536V185.824Z" fill="#CCCCCC"/>
<path d="M338.536 212.774H325.061V218.95H338.536V212.774Z" fill="#CCCCCC"/>
<path d="M370.92 177.182L358.844 183.161L382.51 230.962L394.586 224.984L370.92 177.182Z" fill="#E6E6E6"/>
<path d="M374.658 184.729L362.582 190.708L365.322 196.243L377.398 190.264L374.658 184.729Z" fill="#CCCCCC"/>
<path d="M386.615 208.882L374.539 214.86L377.279 220.395L389.355 214.416L386.615 208.882Z" fill="#CCCCCC"/>
<path d="M503.544 32.6455H449.988V86.2014H503.544V32.6455Z" fill="#E6E6E6"/>
<path d="M492.833 43.3564H460.699V75.49H492.833V43.3564Z" fill="#CCCCCC"/>
<path d="M470 54.1426L476.814 65.9436L483.627 77.7446H470H456.373L463.187 65.9436L470 54.1426Z" fill="#E6E6E6"/>
<path d="M481.84 56.3984L488.654 68.1994L495.467 80.0004H481.84H468.213L475.027 68.1994L481.84 56.3984Z" fill="#E6E6E6"/>
<path d="M486.632 52.9403C488.811 52.9403 490.578 51.1735 490.578 48.9941C490.578 46.8146 488.811 45.0479 486.632 45.0479C484.452 45.0479 482.686 46.8146 482.686 48.9941C482.686 51.1735 484.452 52.9403 486.632 52.9403Z" fill="#E6E6E6"/>
<path d="M232.679 32.6455H179.123V86.2014H232.679V32.6455Z" fill="#E6E6E6"/>
<path d="M221.968 43.3564H189.834V75.49H221.968V43.3564Z" fill="#CCCCCC"/>
<path d="M199.137 54.1426L205.95 65.9436L212.764 77.7446H199.137H185.51L192.323 65.9436L199.137 54.1426Z" fill="#E6E6E6"/>
<path d="M210.975 56.3984L217.788 68.1994L224.601 80.0004H210.975H197.348L204.161 68.1994L210.975 56.3984Z" fill="#E6E6E6"/>
<path d="M215.767 52.9403C217.946 52.9403 219.713 51.1735 219.713 48.9941C219.713 46.8146 217.946 45.0479 215.767 45.0479C213.587 45.0479 211.82 46.8146 211.82 48.9941C211.82 51.1735 213.587 52.9403 215.767 52.9403Z" fill="#E6E6E6"/>
<path d="M71.4969 397.845L74.9664 392.483C73.9375 389.641 72.7491 386.859 71.4069 384.151L69.1634 385.963L70.9398 383.217C69.2469 379.885 67.9148 377.785 67.9148 377.785C67.9148 377.785 60.9565 388.75 58.6318 400.36L63.084 407.241L58.1552 403.26C57.9796 404.612 57.8893 405.974 57.8848 407.338C57.8848 421.087 62.3753 432.234 67.9148 432.234C73.4542 432.234 77.9448 421.087 77.9448 407.338C77.8409 402.963 77.067 398.631 75.6502 394.491L71.4969 397.845Z" fill="#2F80ED"/>
<path d="M96.0555 409.764L102.3 408.426C103.583 405.689 104.709 402.881 105.675 400.017L102.808 399.712L106.005 399.027C107.164 395.474 107.707 393.047 107.707 393.047C107.707 393.047 95.0333 395.88 85.1803 402.446L83.4631 410.459L82.7929 404.159C81.7124 404.991 80.6854 405.89 79.7179 406.851C69.9955 416.574 65.2892 427.631 69.2062 431.548C73.1231 435.465 84.18 430.758 93.9025 421.036C96.9222 417.869 99.4387 414.258 101.364 410.329L96.0555 409.764Z" fill="#2F80ED"/>
<path d="M98.3369 462.969C83.8557 463.895 68.077 462.915 51.291 462.969V424.537C66.0822 426.84 81.8557 426.603 98.3369 424.537V462.969Z" fill="#3F3D56"/>
<path d="M696.509 475.031H500.998V728.585H696.509V475.031Z" fill="#E6E6E6"/>
<path d="M102.847 488.269H92.6641V728.584H102.847V488.269Z" fill="#E6E6E6"/>
<path d="M696.509 457.721H0V478.086H696.509V457.721Z" fill="#E6E6E6"/>
<path d="M107.938 478.086H87.5723V498.452H107.938V478.086Z" fill="#E6E6E6"/>
<path d="M614.155 489.796L613.009 494.379H584.497L582.779 489.796H510.162V536.638H687.344V489.796H614.155Z" fill="#3F3D56"/>
<path d="M614.155 548.857L613.009 553.439H584.497L582.779 548.857H510.162V595.698H687.344V548.857H614.155Z" fill="#3F3D56"/>
<path d="M614.155 607.918L613.009 612.5H584.497L582.779 607.918H510.162V654.759H687.344V607.918H614.155Z" fill="#3F3D56"/>
<path d="M614.155 666.979L613.009 671.56H584.497L582.779 666.979H510.162V713.82H687.344V666.979H614.155Z" fill="#3F3D56"/>
<path d="M377.784 454.665H317.705L319.741 428.19H375.747L377.784 454.665Z" fill="#E6E6E6"/>
<path d="M381.857 451.61H314.65V457.72H381.857V451.61Z" fill="#E6E6E6"/>
<path d="M462.812 257.627H233.188C231.567 257.627 230.013 258.271 228.868 259.416C227.722 260.562 227.078 262.116 227.078 263.737V403.751H468.921V263.737C468.921 262.116 468.278 260.562 467.132 259.416C465.986 258.271 464.432 257.627 462.812 257.627Z" fill="#3F3D56"/>
<path d="M227.078 403.751V426.662C227.078 428.283 227.722 429.837 228.868 430.983C230.013 432.128 231.567 432.772 233.188 432.772H462.812C464.432 432.772 465.986 432.128 467.132 430.983C468.278 429.837 468.921 428.283 468.921 426.662V403.751H227.078Z" fill="#E6E6E6"/>
<path d="M457.21 270.355H239.297V392.55H457.21V270.355Z" fill="white"/>
<path d="M348.254 424.117C351.629 424.117 354.364 421.382 354.364 418.007C354.364 414.633 351.629 411.897 348.254 411.897C344.88 411.897 342.145 414.633 342.145 418.007C342.145 421.382 344.88 424.117 348.254 424.117Z" fill="#3F3D56"/>
<path d="M865.035 727.058C842.781 728.481 818.532 726.975 792.736 727.058V667.997C815.467 671.536 839.707 671.172 865.035 667.997V727.058Z" fill="#3F3D56"/>
<path d="M831.432 673.3H825.322L827.359 553.949H829.395L831.432 673.3Z" fill="#3F3D56"/>
<path d="M858.926 674.107H852.816L854.853 554.755H856.889L858.926 674.107Z" fill="#3F3D56"/>
<path d="M806.993 674.107H800.883L802.92 554.755H804.956L806.993 674.107Z" fill="#3F3D56"/>
<path d="M836.523 477.577L846.386 462.334C843.461 454.255 840.083 446.347 836.267 438.648L829.89 443.799L834.939 435.995C830.127 426.521 826.34 420.553 826.34 420.553C826.34 420.553 806.56 451.723 799.952 484.725L812.608 504.285L798.597 492.968C798.098 496.813 797.841 500.685 797.828 504.561C797.828 543.647 810.593 575.332 826.34 575.332C842.087 575.332 854.852 543.647 854.852 504.561C854.852 492.444 852.111 479.767 848.33 468.041L836.523 477.577Z" fill="#E6E6E6"/>
<path d="M864.017 479.614L873.88 464.371C870.955 456.292 867.577 448.384 863.761 440.685L857.384 445.836L862.434 438.032C857.621 428.559 853.834 422.59 853.834 422.59C853.834 422.59 834.054 453.76 827.446 486.763L840.102 506.322L826.091 495.006C825.592 498.85 825.335 502.722 825.322 506.599C825.322 545.684 838.087 577.37 853.834 577.37C869.581 577.37 882.346 545.684 882.346 506.599C882.346 494.482 879.605 481.805 875.824 470.078L864.017 479.614Z" fill="#2F80ED"/>
<path d="M812.086 479.614L821.948 464.371C819.023 456.292 815.645 448.384 811.83 440.685L805.452 445.836L810.502 438.032C805.689 428.559 801.903 422.59 801.903 422.59C801.903 422.59 782.122 453.76 775.514 486.763L788.17 506.322L774.159 495.006C773.66 498.85 773.404 502.722 773.391 506.599C773.391 545.684 786.156 577.37 801.903 577.37C817.649 577.37 830.415 545.684 830.415 506.599C830.415 494.482 827.673 481.805 823.892 470.078L812.086 479.614Z" fill="#2F80ED"/>
<path d="M368.721 304.848H309.965V308.22H368.721V304.848Z" fill="#3F3D56"/>
<path d="M400.697 317.151H309.965V320.524H400.697V317.151Z" fill="#2F80ED"/>
<path d="M383.91 328.742H309.965V332.115H383.91V328.742Z" fill="#2F80ED"/>
<path d="M353.133 340.29H309.965V343.663H353.133V340.29Z" fill="#3F3D56"/>
<path d="M375.116 351.838H309.965V355.211H375.116V351.838Z" fill="#3F3D56"/>
<path d="M290.378 303.648H283.184V310.843H290.378V303.648Z" fill="#3F3D56"/>
<path d="M290.378 315.24H283.184V322.435H290.378V315.24Z" fill="#2F80ED"/>
<path d="M290.378 326.831H283.184V334.026H290.378V326.831Z" fill="#2F80ED"/>
<path d="M290.378 338.423H283.184V345.617H290.378V338.423Z" fill="#3F3D56"/>
<path d="M290.378 350.014H283.184V357.208H290.378V350.014Z" fill="#3F3D56"/>
<path d="M447.116 298.463H416.283C414.179 286.299 414.179 273.864 416.283 261.7H447.116C443.643 273.708 443.643 286.455 447.116 298.463Z" fill="#2F80ED"/>
<path d="M222.763 372.145L210.078 369.053C205.238 369.059 200.457 367.989 196.08 365.92C191.704 363.851 187.843 360.836 184.775 357.091C181.708 353.347 179.511 348.967 178.344 344.269C177.177 339.572 177.069 334.673 178.028 329.929C178.013 318.608 182.497 307.745 190.492 299.73C198.487 291.715 209.338 287.205 220.659 287.19C231.979 287.176 242.842 291.66 250.857 299.655C258.872 307.649 263.383 318.501 263.397 329.821C270.589 354.85 248.064 378.312 222.763 372.145Z" fill="#2F2E41"/>
<path d="M236.62 376.607C253.941 376.607 267.983 362.565 267.983 345.244C267.983 327.922 253.941 313.88 236.62 313.88C219.298 313.88 205.256 327.922 205.256 345.244C205.256 362.565 219.298 376.607 236.62 376.607Z" fill="#FFB8B8"/>
<path d="M216.165 361.607C216.165 361.607 206.62 394.335 201.165 397.062C195.711 399.789 244.802 403.88 244.802 403.88C244.802 403.88 243.438 372.517 246.165 369.789C248.893 367.062 216.165 361.607 216.165 361.607Z" fill="#FFB8B8"/>
<path d="M265.255 563.426C265.255 563.426 326.619 557.971 334.801 578.426C342.983 598.88 329.346 720.244 329.346 720.244H303.437V620.698C303.437 620.698 192.965 589.297 192.965 578.387C192.965 567.478 265.255 563.426 265.255 563.426Z" fill="#2F2E41"/>
<path d="M325.257 714.789L338.893 720.244C338.893 720.244 355.257 718.88 348.439 731.153C346.487 734.715 343.757 737.792 340.452 740.153C337.146 742.514 333.351 744.098 329.348 744.789C329.348 744.789 303.439 754.335 302.075 744.789C300.712 735.244 308.893 716.153 308.893 716.153L325.257 714.789Z" fill="#2F2E41"/>
<path d="M231.164 563.426C231.164 563.426 292.528 557.971 300.71 578.426C308.892 598.88 295.255 720.244 295.255 720.244H269.346V620.698C269.346 620.698 190.928 602.534 190.928 591.625C190.928 586.5 185.585 560.454 195.001 554.967C205.629 548.774 231.164 563.426 231.164 563.426Z" fill="#2F2E41"/>
<path d="M291.165 714.789L304.802 720.244C304.802 720.244 321.165 718.88 314.347 731.153C312.395 734.715 309.665 737.792 306.36 740.153C303.055 742.514 299.259 744.098 295.256 744.789C295.256 744.789 269.347 754.335 267.983 744.789C266.62 735.244 274.802 716.153 274.802 716.153L291.165 714.789Z" fill="#2F2E41"/>
<path d="M202.528 392.971L243.509 397.425C249.833 398.113 255.779 400.781 260.497 405.049C265.214 409.317 268.463 414.967 269.778 421.192L285.71 496.607C285.71 496.607 291.165 571.607 280.256 575.698C269.347 579.789 254.347 559.335 233.892 562.062C213.438 564.789 186.847 570.926 186.847 570.926C186.847 570.926 182.624 436.678 182.074 425.698C180.974 403.747 202.528 392.971 202.528 392.971Z" fill="#575A89"/>
<path d="M299.601 567.322L316.425 577.23C316.425 577.23 346.608 572.899 345.666 583.508C344.723 594.117 311.777 592.067 311.777 592.067L291.502 579.574L299.601 567.322Z" fill="#FFB8B8"/>
<path d="M175.742 319.735C186.931 319.735 196.002 310.665 196.002 299.475C196.002 288.286 186.931 279.216 175.742 279.216C164.553 279.216 155.482 288.286 155.482 299.475C155.482 310.665 164.553 319.735 175.742 319.735Z" fill="#2F2E41"/>
<path d="M194.436 288.584C194.434 285.587 193.766 282.628 192.482 279.92C191.197 277.213 189.328 274.824 187.008 272.926C184.689 271.029 181.977 269.67 179.068 268.947C176.16 268.225 173.127 268.157 170.189 268.748C172.782 267.523 175.604 266.862 178.471 266.81C181.338 266.758 184.183 267.314 186.818 268.444C189.453 269.573 191.819 271.249 193.758 273.361C195.697 275.473 197.165 277.973 198.066 280.695C198.967 283.416 199.279 286.299 198.983 289.15C198.687 292.002 197.788 294.758 196.347 297.237C194.906 299.715 192.954 301.859 190.622 303.527C188.29 305.195 185.631 306.349 182.82 306.912C186.296 305.275 189.234 302.682 191.291 299.436C193.348 296.191 194.439 292.427 194.436 288.584Z" fill="#2F2E41"/>
<path d="M211.816 300.074L239.129 295.045L260.134 308.21C265.299 311.446 269.426 316.096 272.028 321.608C274.629 327.119 275.596 333.261 274.812 339.305L253.775 333.973L249.064 322.161L243.454 331.357L214.119 369.107L197.65 358.619L182.967 335.609L211.816 300.074Z" fill="#2F2E41"/>
<path d="M234.309 404.57L247.945 397.752C247.945 397.752 276.581 401.843 282.036 420.934C287.491 440.025 312.036 572.298 312.036 572.298L288.854 583.207L256.127 502.752L234.309 404.57Z" fill="#575A89"/>
<path opacity="0.2" d="M245.918 458.23L259.566 511.205L283.768 570.701L282.929 572.761L254.064 512.199L245.918 458.23Z" fill="black"/>
<path d="M144.084 750.379L139.271 748.721L185.896 610.231L192.636 612.553L144.084 750.379Z" fill="#3F3D56"/>
<path d="M322.291 750.379L327.105 748.721L280.479 610.231L273.74 612.553L322.291 750.379Z" fill="#3F3D56"/>
<path d="M223.769 778.981L228.86 778.999L230.442 617.107L223.314 617.082L223.769 778.981Z" fill="#3F3D56"/>
<path d="M132.3 528.856L146.265 585.301C148.221 593.206 152.293 600.428 158.044 606.193C163.795 611.958 171.008 616.048 178.908 618.023C217.856 627.76 258.634 627.497 297.455 617.259L318.306 611.76C330.421 608.564 339.532 598.159 340.394 585.658C340.744 581.239 339.944 576.805 338.071 572.787C337.99 572.614 337.908 572.442 337.826 572.272C335.107 566.686 330.911 561.95 325.694 558.577C320.477 555.204 314.437 553.321 308.228 553.134L286.139 552.421L205.694 516.781C205.694 516.781 178.027 502.728 155.282 501.155C140.262 500.116 128.683 514.24 132.3 528.856Z" fill="#2F80ED"/>
<path d="M622.682 351.31H543.256V459.248H622.682V351.31Z" fill="#E6E6E6"/>
<path d="M613.519 363.764H552.422V446.793H613.519V363.764Z" fill="white"/>
<path d="M606.069 385.492H576.467V388.865H606.069V385.492Z" fill="#3F3D56"/>
<path d="M567.066 383.625H559.871V390.82H567.066V383.625Z" fill="#3F3D56"/>
<path d="M606.069 399.748H576.467V403.121H606.069V399.748Z" fill="#3F3D56"/>
<path d="M567.066 397.881H559.871V405.076H567.066V397.881Z" fill="#3F3D56"/>
<path d="M606.069 414.004H576.467V417.377H606.069V414.004Z" fill="#3F3D56"/>
<path d="M567.066 412.137H559.871V419.331H567.066V412.137Z" fill="#3F3D56"/>
<path d="M586.024 357.419C586.024 355.732 584.656 354.364 582.969 354.364C581.282 354.364 579.914 355.732 579.914 357.419C579.914 359.106 581.282 360.474 582.969 360.474C584.656 360.474 586.024 359.106 586.024 357.419Z" fill="#3F3D56"/>
</g>
<defs>
<clipPath id="clip0_283_2">
<rect width="882.346" height="778.999" fill="white"/>
</clipPath>
</defs>
</svg>
