<svg width="24" height="24" viewBox="0 0 24 24" fill="none" xmlns="http://www.w3.org/2000/svg">
<path d="M15 7.3V7.3C15 6.0854 15 5.47811 14.745 5.02276C14.5648 4.70094 14.2991 4.43523 13.9772 4.25501C13.5219 4 12.9146 4 11.7 4H8C6.11438 4 5.17157 4 4.58579 4.58579C4 5.17157 4 6.11438 4 8V11.7C4 12.9146 4 13.5219 4.25501 13.9772C4.43523 14.2991 4.70094 14.5648 5.02276 14.745C5.47811 15 6.0854 15 7.3 15V15" stroke="#305953" stroke-width="2"/>
<path d="M15 7.3V7.3C15 6.0854 15 5.47811 14.745 5.02276C14.5648 4.70094 14.2991 4.43523 13.9772 4.25501C13.5219 4 12.9146 4 11.7 4H8C6.11438 4 5.17157 4 4.58579 4.58579C4 5.17157 4 6.11438 4 8V11.7C4 12.9146 4 13.5219 4.25501 13.9772C4.43523 14.2991 4.70094 14.5648 5.02276 14.745C5.47811 15 6.0854 15 7.3 15V15" stroke="black" stroke-opacity="0.2" stroke-width="2"/>
<rect x="10" y="10" width="11" height="11" rx="2" stroke="#305953" stroke-width="2"/>
<rect x="10" y="10" width="11" height="11" rx="2" stroke="black" stroke-opacity="0.2" stroke-width="2"/>
</svg>
