<svg width="12" height="12" viewBox="0 0 12 12" fill="none" xmlns="http://www.w3.org/2000/svg">
<g id="Icon" clip-path="url(#clip0_19_777)">
<path id="menu / close_small" d="M11.154 0.84603C10.6868 0.378797 9.92926 0.378797 9.46203 0.84603L6.24388 4.06418C6.1092 4.19885 5.89085 4.19885 5.75618 4.06418L2.53803 0.84603C2.0708 0.378797 1.31326 0.378797 0.84603 0.84603C0.378797 1.31326 0.378797 2.0708 0.84603 2.53803L4.06418 5.75618C4.19885 5.89085 4.19885 6.1092 4.06418 6.24388L0.84603 9.46203C0.378797 9.92926 0.378797 10.6868 0.84603 11.154C1.31326 11.6213 2.0708 11.6213 2.53803 11.154L5.75618 7.93588C5.89085 7.8012 6.1092 7.8012 6.24388 7.93588L9.46203 11.154C9.92926 11.6213 10.6868 11.6213 11.154 11.154C11.6213 10.6868 11.6213 9.92926 11.154 9.46203L7.93588 6.24388C7.8012 6.1092 7.8012 5.89085 7.93588 5.75618L11.154 2.53803C11.6213 2.0708 11.6213 1.31326 11.154 0.84603Z" fill="#E83D3D" fill-opacity="0.9"/>
</g>
<defs>
<clipPath id="clip0_19_777">
<rect width="12" height="12" fill="white"/>
</clipPath>
</defs>
</svg>
