<svg width="24" height="24" viewBox="0 0 24 24" fill="none" xmlns="http://www.w3.org/2000/svg">
<path d="M8.74215 20.8445L8.49961 19.8744L8.74215 20.8445C8.76009 20.84 8.77855 20.8355 8.79746 20.8308C9.00576 20.7794 9.26942 20.7143 9.51118 20.5775L9.01849 19.7073L9.51119 20.5775C9.75295 20.4406 9.9444 20.248 10.0956 20.0958C10.1094 20.082 10.1228 20.0685 10.1359 20.0554L19.6633 10.528C19.6761 10.5152 19.6889 10.5023 19.7017 10.4895C20.0017 10.1897 20.2931 9.89837 20.5012 9.6257C20.7357 9.31831 20.9562 8.92035 20.9562 8.40668C20.9562 7.89302 20.7357 7.49506 20.5012 7.18767C20.2931 6.915 20.0017 6.62365 19.7018 6.32385C19.6889 6.31104 19.6761 6.29821 19.6633 6.28536L18.7139 5.33601C18.7011 5.32317 18.6882 5.31034 18.6754 5.29753C18.3756 4.99761 18.0843 4.70614 17.8116 4.4981C17.5042 4.26356 17.1063 4.04312 16.5926 4.04312C16.0789 4.04312 15.681 4.26356 15.3736 4.4981C15.1009 4.70614 14.8095 4.99761 14.5097 5.29753C14.4969 5.31035 14.4841 5.32318 14.4713 5.33601L4.94387 14.8634C4.93079 14.8765 4.91731 14.8899 4.9035 14.9036C4.75133 15.0549 4.55871 15.2463 4.42182 15.4881L5.29202 15.9808L4.42182 15.4881C4.28494 15.7299 4.21987 15.9935 4.16847 16.2018C4.1638 16.2207 4.15924 16.2392 4.15476 16.2571L3.23197 19.9483C3.22917 19.9595 3.22624 19.9711 3.22323 19.9831C3.18641 20.1296 3.1354 20.3325 3.11783 20.5121C3.09761 20.7188 3.09093 21.1708 3.45971 21.5396C3.82848 21.9083 4.28045 21.9017 4.48714 21.8814C4.66675 21.8639 4.86965 21.8129 5.01614 21.7761C5.02815 21.773 5.03978 21.7701 5.05099 21.7673L8.74215 20.8445Z" stroke="#305953" stroke-width="2"/>
<path d="M8.74215 20.8445L8.49961 19.8744L8.74215 20.8445C8.76009 20.84 8.77855 20.8355 8.79746 20.8308C9.00576 20.7794 9.26942 20.7143 9.51118 20.5775L9.01849 19.7073L9.51119 20.5775C9.75295 20.4406 9.9444 20.248 10.0956 20.0958C10.1094 20.082 10.1228 20.0685 10.1359 20.0554L19.6633 10.528C19.6761 10.5152 19.6889 10.5023 19.7017 10.4895C20.0017 10.1897 20.2931 9.89837 20.5012 9.6257C20.7357 9.31831 20.9562 8.92035 20.9562 8.40668C20.9562 7.89302 20.7357 7.49506 20.5012 7.18767C20.2931 6.915 20.0017 6.62365 19.7018 6.32385C19.6889 6.31104 19.6761 6.29821 19.6633 6.28536L18.7139 5.33601C18.7011 5.32317 18.6882 5.31034 18.6754 5.29753C18.3756 4.99761 18.0843 4.70614 17.8116 4.4981C17.5042 4.26356 17.1063 4.04312 16.5926 4.04312C16.0789 4.04312 15.681 4.26356 15.3736 4.4981C15.1009 4.70614 14.8095 4.99761 14.5097 5.29753C14.4969 5.31035 14.4841 5.32318 14.4713 5.33601L4.94387 14.8634C4.93079 14.8765 4.91731 14.8899 4.9035 14.9036C4.75133 15.0549 4.55871 15.2463 4.42182 15.4881L5.29202 15.9808L4.42182 15.4881C4.28494 15.7299 4.21987 15.9935 4.16847 16.2018C4.1638 16.2207 4.15924 16.2392 4.15476 16.2571L3.23197 19.9483C3.22917 19.9595 3.22624 19.9711 3.22323 19.9831C3.18641 20.1296 3.1354 20.3325 3.11783 20.5121C3.09761 20.7188 3.09093 21.1708 3.45971 21.5396C3.82848 21.9083 4.28045 21.9017 4.48714 21.8814C4.66675 21.8639 4.86965 21.8129 5.01614 21.7761C5.02815 21.773 5.03978 21.7701 5.05099 21.7673L8.74215 20.8445Z" stroke="black" stroke-opacity="0.2" stroke-width="2"/>
<path d="M13.4443 6.51852L17.2221 4L20.9999 7.77778L18.4814 11.5556L13.4443 6.51852Z" fill="#305953"/>
<path d="M13.4443 6.51852L17.2221 4L20.9999 7.77778L18.4814 11.5556L13.4443 6.51852Z" fill="black" fill-opacity="0.2"/>
</svg>
