<svg width="24" height="24" viewBox="0 0 24 24" fill="none" xmlns="http://www.w3.org/2000/svg">
<path d="M14 14L10 18.5L14 23" stroke="#305953" stroke-width="2"/>
<path d="M14 14L10 18.5L14 23" stroke="black" stroke-opacity="0.2" stroke-width="2"/>
<path d="M5.0718 15C4.17677 13.4498 3.82753 11.6442 4.07992 9.87199C4.33232 8.09983 5.17178 6.46351 6.46402 5.2248C7.75625 3.98609 9.4266 3.21656 11.2078 3.03932C12.9891 2.86207 14.7783 3.28734 16.2893 4.2471C17.8003 5.20687 18.9458 6.64567 19.5425 8.33334C20.1392 10.021 20.1526 11.8601 19.5806 13.5563C19.0086 15.2525 17.8843 16.7078 16.3875 17.6896C14.8906 18.6713 13.1078 19.1226 11.3242 18.9714" stroke="#305953" stroke-width="2" stroke-linecap="round"/>
<path d="M5.0718 15C4.17677 13.4498 3.82753 11.6442 4.07992 9.87199C4.33232 8.09983 5.17178 6.46351 6.46402 5.2248C7.75625 3.98609 9.4266 3.21656 11.2078 3.03932C12.9891 2.86207 14.7783 3.28734 16.2893 4.2471C17.8003 5.20687 18.9458 6.64567 19.5425 8.33334C20.1392 10.021 20.1526 11.8601 19.5806 13.5563C19.0086 15.2525 17.8843 16.7078 16.3875 17.6896C14.8906 18.6713 13.1078 19.1226 11.3242 18.9714" stroke="black" stroke-opacity="0.2" stroke-width="2" stroke-linecap="round"/>
</svg>
