<svg width="24" height="24" viewBox="0 0 24 24" fill="none" xmlns="http://www.w3.org/2000/svg">
<path d="M13.958 4.08148H13.0414V4.1272L13.0459 4.17269L13.958 4.08148ZM13.958 4.08147H14.8747V4.03575L14.8702 3.99026L13.958 4.08147ZM14.2284 5.41659L13.4996 5.97257L13.4996 5.97257L14.2284 5.41659ZM15.0794 5.7691L14.9572 4.86062L15.0794 5.7691ZM16.2146 5.0162L16.7951 5.72566V5.72566L16.2146 5.0162ZM16.8448 4.58358L16.5658 3.71039L16.5658 3.71039L16.8448 4.58358ZM17.4882 4.61567L17.1237 5.45677L17.1237 5.45677L17.4882 4.61567ZM18.0722 5.10885L18.7204 4.46066L18.7204 4.46066L18.0722 5.10885ZM18.8912 5.92786L18.243 6.57604L18.243 6.57604L18.8912 5.92786ZM19.3844 6.51185L18.5433 6.8763L18.5433 6.8763L19.3844 6.51185ZM19.4165 7.15525L20.2897 7.43421L20.2897 7.43419L19.4165 7.15525ZM18.9839 7.78541L18.2744 7.20494L18.2579 7.22514L18.2425 7.24625L18.9839 7.78541ZM18.9838 7.78542L19.6933 8.36589L19.7098 8.34569L19.7252 8.32458L18.9838 7.78542ZM18.2309 8.92067L17.3224 8.79847V8.79847L18.2309 8.92067ZM18.5834 9.77168L19.1394 9.04287V9.04287L18.5834 9.77168ZM19.9186 10.042L19.8274 10.9541L19.9186 10.042ZM20.6701 10.1817L21.0903 9.36704L21.0903 9.36704L20.6701 10.1817ZM21.1024 10.6593L20.2499 10.9964L20.2499 10.9964L21.1024 10.6593ZM21.1024 13.3409L20.2499 13.0039L20.2499 13.0039L21.1024 13.3409ZM20.67 13.8186L21.0902 14.6334L21.0902 14.6334L20.67 13.8186ZM19.9187 13.9583L19.8274 13.0462L19.9187 13.9583ZM18.5839 14.2285L18.0281 13.4996L18.0281 13.4996L18.5839 14.2285ZM18.2313 15.0798L19.1398 14.9574V14.9574L18.2313 15.0798ZM18.984 16.2146L19.6934 15.6342L18.984 16.2146ZM19.4165 16.8445L18.5433 17.1236L18.5433 17.1236L19.4165 16.8445ZM19.3844 17.4882L20.2254 17.8528L20.2254 17.8527L19.3844 17.4882ZM18.8913 18.072L19.5395 18.7201L19.5395 18.7201L18.8913 18.072ZM18.0722 18.8911L17.424 18.2429L17.424 18.2429L18.0722 18.8911ZM17.4882 19.3843L17.8527 20.2253H17.8527L17.4882 19.3843ZM16.8448 19.4163L17.1238 18.5431L17.1238 18.5431L16.8448 19.4163ZM16.2147 18.9837L16.7951 18.2743L16.7951 18.2743L16.2147 18.9837ZM15.0795 18.2308L14.9572 19.1393H14.9572L15.0795 18.2308ZM14.2284 18.5833L13.4996 18.0273L13.4996 18.0273L14.2284 18.5833ZM13.9581 19.9186L14.8702 20.0098L13.9581 19.9186ZM13.8183 20.6705L13.0037 20.2502L13.0037 20.2502L13.8183 20.6705ZM13.3408 21.1026L13.678 21.955L13.678 21.955L13.3408 21.1026ZM10.6591 21.1026L10.322 21.9551L10.3221 21.9551L10.6591 21.1026ZM10.1815 20.6704L10.9962 20.2502H10.9962L10.1815 20.6704ZM10.0418 19.9188L10.9539 19.8276L10.0418 19.9188ZM9.77142 18.5837L9.04263 19.1397L9.04263 19.1397L9.77142 18.5837ZM8.92044 18.2312L9.04263 19.1397H9.04263L8.92044 18.2312ZM7.78515 18.9841L8.36562 19.6936L7.78515 18.9841ZM7.15495 19.4168L6.87602 18.5436L6.87601 18.5436L7.15495 19.4168ZM6.51158 19.3847L6.87602 18.5436L6.87601 18.5436L6.51158 19.3847ZM5.92756 18.8915L5.27938 19.5397H5.27938L5.92756 18.8915ZM5.10857 18.0725L4.46039 18.7207H4.46039L5.10857 18.0725ZM4.61538 17.4885L3.77427 17.8529L3.77427 17.8529L4.61538 17.4885ZM4.58329 16.8451L3.7101 16.5661L3.71009 16.5661L4.58329 16.8451ZM5.01593 16.2149L5.72539 16.7954H5.72539L5.01593 16.2149ZM5.76885 15.0797L6.67733 15.2019L5.76885 15.0797ZM5.41635 14.2286L5.97233 13.4998L5.97233 13.4998L5.41635 14.2286ZM4.08123 13.9583L3.99002 14.8704H3.99002L4.08123 13.9583ZM3.32973 13.8186L2.90954 14.6333L2.90954 14.6333L3.32973 13.8186ZM2.89746 13.341L2.045 13.678H2.045L2.89746 13.341ZM2.8975 10.6593L2.04507 10.3222L2.04507 10.3222L2.8975 10.6593ZM3.32965 10.1818L2.90938 9.36711L2.90938 9.36711L3.32965 10.1818ZM4.08134 10.042L4.17255 10.9541L4.20914 10.9505L4.24532 10.9439L4.08134 10.042ZM4.08135 10.042L3.99014 9.1299L3.95355 9.13356L3.91737 9.14014L4.08135 10.042ZM5.4168 9.77157L4.86071 9.04284L4.86071 9.04284L5.4168 9.77157ZM5.76921 8.92077L6.67771 8.7987V8.79869L5.76921 8.92077ZM5.01609 7.78516L4.28276 8.33516L4.29437 8.35065L4.30663 8.36563L5.01609 7.78516ZM5.01609 7.78516L5.74942 7.23516L5.73781 7.21967L5.72555 7.20469L5.01609 7.78516ZM4.58329 7.15471L3.71006 7.43353L3.71006 7.43353L4.58329 7.15471ZM4.61537 6.51156L3.77422 6.14723L3.77422 6.14723L4.61537 6.51156ZM5.9276 5.10845L6.57578 5.75663H6.57578L5.9276 5.10845ZM6.51162 4.61525L6.87606 5.45636H6.87606L6.51162 4.61525ZM7.15499 4.58316L7.43393 3.70996V3.70996L7.15499 4.58316ZM7.78526 5.01586L7.2048 5.72532L7.21978 5.73758L7.23526 5.74919L7.78526 5.01586ZM7.78527 5.01586L8.36574 4.3064L8.35075 4.29414L8.33527 4.28253L7.78527 5.01586ZM8.92032 5.76872L8.79798 6.67719L8.92032 5.76872ZM9.77156 5.41613L9.04267 4.86026V4.86026L9.77156 5.41613ZM10.0418 4.08136L10.9539 4.17257L10.9585 4.12708V4.08136H10.0418ZM10.0418 4.08136L9.12968 3.99014L9.12513 4.03564V4.08136H10.0418ZM10.1814 3.33006L9.36669 2.90995L9.36669 2.90995L10.1814 3.33006ZM10.6592 2.89767L10.3223 2.04518V2.04518L10.6592 2.89767ZM13.3407 2.89771L13.0037 3.75016L13.0037 3.75016L13.3407 2.89771ZM13.8184 3.32997L14.6331 2.90978V2.90978L13.8184 3.32997ZM14.8747 4.08148V4.08147H13.0414V4.08148H14.8747ZM14.9572 4.86062C15.0152 4.93663 14.9967 4.97026 14.9646 4.79145C14.934 4.6214 14.9093 4.38188 14.8702 3.99027L13.0459 4.17269C13.082 4.53354 13.1138 4.85836 13.1602 5.11615C13.205 5.36518 13.2841 5.69013 13.4996 5.97257L14.9572 4.86062ZM14.9572 4.86062V4.86062L13.4996 5.97257C13.8991 6.49627 14.5488 6.7654 15.2016 6.67758L14.9572 4.86062ZM15.6342 4.30674C15.3296 4.55596 15.1428 4.70791 15.0009 4.80651C14.8517 4.91019 14.8625 4.87336 14.9572 4.86062L15.2016 6.67758C15.5537 6.63022 15.8394 6.45638 16.0472 6.31197C16.2623 6.16249 16.5144 5.9553 16.7951 5.72566L15.6342 4.30674ZM16.5658 3.71039C16.3558 3.77751 16.1876 3.88132 16.0514 3.97839C15.9226 4.07014 15.7793 4.18796 15.6342 4.30674L16.7951 5.72566C16.9591 5.59146 17.0478 5.51953 17.1152 5.47151C17.1751 5.4288 17.1675 5.4428 17.1237 5.45677L16.5658 3.71039ZM17.8527 3.77457C17.4456 3.59819 16.9884 3.57539 16.5658 3.71039L17.1237 5.45677L17.1237 5.45677L17.8527 3.77457ZM18.7204 4.46066C18.5877 4.32803 18.4569 4.19655 18.3379 4.09243C18.212 3.98229 18.055 3.86226 17.8527 3.77457L17.1237 5.45677C17.0816 5.43852 17.0754 5.42383 17.1308 5.47229C17.1931 5.52678 17.2741 5.60717 17.424 5.75703L18.7204 4.46066ZM19.5394 5.27968L18.7204 4.46066L17.424 5.75703L18.243 6.57604L19.5394 5.27968ZM20.2255 6.1474C20.1378 5.94504 20.0178 5.78806 19.9076 5.66216C19.8035 5.54313 19.672 5.41232 19.5394 5.27967L18.243 6.57604C18.3929 6.7259 18.4733 6.80696 18.5278 6.86925C18.5762 6.92466 18.5615 6.91842 18.5433 6.8763L20.2255 6.1474ZM20.2897 7.43419C20.4247 7.01163 20.4019 6.55445 20.2255 6.1474L18.5433 6.8763L18.5433 6.87631L20.2897 7.43419ZM19.6933 8.36588C19.8121 8.2207 19.9299 8.07745 20.0217 7.94866C20.1187 7.81242 20.2225 7.64429 20.2897 7.43421L18.5433 6.8763C18.5573 6.83257 18.5712 6.82491 18.5285 6.88486C18.4805 6.95226 18.4086 7.04092 18.2744 7.20494L19.6933 8.36588ZM19.7252 8.32458L19.7252 8.32456L18.2425 7.24625L18.2425 7.24627L19.7252 8.32458ZM19.1394 9.04287C19.1267 9.13763 19.0898 9.14836 19.1935 8.99917C19.2921 8.85729 19.4441 8.6705 19.6933 8.36589L18.2744 7.20495C18.0447 7.48563 17.8375 7.73781 17.6881 7.9529C17.5436 8.16069 17.3698 8.4464 17.3224 8.79847L19.1394 9.04287ZM19.1394 9.04287V9.04287L17.3224 8.79847C17.2346 9.45126 17.5038 10.101 18.0274 10.5005L19.1394 9.04287ZM20.0098 9.12991C19.6182 9.09075 19.3786 9.06612 19.2086 9.03551C19.0298 9.00333 19.0634 8.98488 19.1394 9.04287L18.0274 10.5005C18.3099 10.7159 18.6348 10.795 18.8839 10.8399C19.1417 10.8863 19.4665 10.9181 19.8274 10.9541L20.0098 9.12991ZM21.0903 9.36704C20.8943 9.26593 20.702 9.22045 20.537 9.19275C20.3811 9.16656 20.1965 9.14858 20.0098 9.12991L19.8274 10.9541C20.0383 10.9752 20.1518 10.9871 20.2334 11.0008C20.306 11.013 20.2907 11.0174 20.2499 10.9964L21.0903 9.36704ZM21.9548 10.3223C21.7917 9.90977 21.4846 9.57038 21.0903 9.36704L20.2499 10.9964V10.9964L21.9548 10.3223ZM22.0833 11.4211C22.0833 11.2335 22.0837 11.048 22.0732 10.8902C22.062 10.7233 22.0359 10.5274 21.9548 10.3223L20.2499 10.9964C20.233 10.9537 20.239 10.9389 20.2439 11.0124C20.2494 11.0949 20.2499 11.2091 20.2499 11.4211H22.0833ZM22.0833 12.5794V11.4211H20.2499V12.5794H22.0833ZM21.9549 13.6779C22.0359 13.4728 22.0621 13.277 22.0732 13.1101C22.0837 12.9524 22.0833 12.7669 22.0833 12.5794H20.2499C20.2499 12.7913 20.2494 12.9054 20.2439 12.988C20.239 13.0614 20.233 13.0466 20.2499 13.0039L21.9549 13.6779ZM21.0902 14.6334C21.4845 14.43 21.7918 14.0905 21.9549 13.6779L20.2499 13.0039L20.2499 13.0039L21.0902 14.6334ZM20.0099 14.8704C20.1965 14.8517 20.3811 14.8338 20.537 14.8076C20.7019 14.7799 20.8942 14.7344 21.0902 14.6334L20.2499 13.0039C20.2907 12.9829 20.306 12.9874 20.2334 12.9996C20.1518 13.0133 20.0383 13.0251 19.8274 13.0462L20.0099 14.8704ZM19.1398 14.9574C19.0637 15.0154 19.0301 14.9969 19.2089 14.9648C19.3789 14.9342 19.6184 14.9096 20.0099 14.8704L19.8274 13.0462C19.4667 13.0822 19.142 13.114 18.8843 13.1604C18.6353 13.2052 18.3105 13.2843 18.0281 13.4996L19.1398 14.9574ZM19.1398 14.9574V14.9574L18.0281 13.4996C17.5041 13.8991 17.2349 14.5492 17.3228 15.2022L19.1398 14.9574ZM19.6934 15.6342C19.4443 15.3297 19.2924 15.1429 19.1938 15.0011C19.0902 14.852 19.127 14.8627 19.1398 14.9574L17.3228 15.2022C17.3702 15.5541 17.544 15.8397 17.6884 16.0474C17.8378 16.2624 18.045 16.5145 18.2745 16.7951L19.6934 15.6342ZM20.2896 16.5655C20.2225 16.3555 20.1187 16.1874 20.0217 16.0512C19.93 15.9225 19.8122 15.7793 19.6934 15.6342L18.2745 16.7951C18.4087 16.9591 18.4806 17.0477 18.5286 17.1151C18.5713 17.175 18.5573 17.1673 18.5433 17.1236L20.2896 16.5655ZM20.2254 17.8527C20.4019 17.4456 20.4247 16.9882 20.2896 16.5655L18.5433 17.1236L18.5433 17.1236L20.2254 17.8527ZM19.5395 18.7201C19.6721 18.5875 19.8036 18.4568 19.9076 18.3378C20.0177 18.2119 20.1377 18.055 20.2254 17.8528L18.5433 17.1236C18.5616 17.0815 18.5763 17.0753 18.5278 17.1307C18.4733 17.1929 18.393 17.274 18.2432 17.4238L19.5395 18.7201ZM18.7204 19.5393L19.5395 18.7201L18.2432 17.4238L17.424 18.2429L18.7204 19.5393ZM17.8527 20.2253C18.0551 20.1377 18.212 20.0176 18.3379 19.9075C18.457 19.8034 18.5878 19.6719 18.7204 19.5393L17.424 18.2429C17.2742 18.3927 17.1931 18.4731 17.1308 18.5276C17.0754 18.5761 17.0817 18.5614 17.1238 18.5432L17.8527 20.2253ZM16.5659 20.2895C16.9885 20.4245 17.4456 20.4017 17.8527 20.2253L17.1238 18.5432V18.5431L16.5659 20.2895ZM15.6342 19.6932C15.7794 19.812 15.9226 19.9298 16.0514 20.0215C16.1877 20.1186 16.3558 20.2224 16.5659 20.2895L17.1238 18.5431C17.1675 18.5571 17.1752 18.5711 17.1152 18.5284C17.0478 18.4804 16.9592 18.4085 16.7951 18.2743L15.6342 19.6932ZM14.9572 19.1393C14.8625 19.1266 14.8518 19.0897 15.0009 19.1934C15.1428 19.292 15.3296 19.444 15.6342 19.6932L16.7951 18.2743C16.5145 18.0446 16.2623 17.8374 16.0472 17.6879C15.8394 17.5435 15.5537 17.3697 15.2017 17.3223L14.9572 19.1393ZM14.9572 19.1393L15.2017 17.3223C14.5489 17.2345 13.8991 17.5036 13.4996 18.0273L14.9572 19.1393ZM14.8702 20.0098C14.9094 19.6182 14.934 19.3786 14.9646 19.2085C14.9968 19.0296 15.0152 19.0633 14.9572 19.1393L13.4996 18.0273C13.2841 18.3098 13.2051 18.6348 13.1602 18.8838C13.1139 19.1416 13.082 19.4665 13.046 19.8274L14.8702 20.0098ZM14.633 21.0907C14.7341 20.8947 14.7796 20.7023 14.8073 20.5373C14.8335 20.3813 14.8515 20.1966 14.8702 20.0098L13.046 19.8274C13.0249 20.0384 13.013 20.152 12.9993 20.2337C12.9871 20.3063 12.9826 20.291 13.0037 20.2502L14.633 21.0907ZM13.678 21.955C14.0903 21.7919 14.4296 21.4848 14.633 21.0907L13.0037 20.2502H13.0037L13.678 21.955ZM12.5789 22.0835C12.7666 22.0835 12.9521 22.084 13.1099 22.0734C13.2769 22.0623 13.4728 22.0361 13.678 21.955L13.0037 20.2502C13.0464 20.2333 13.0612 20.2393 12.9877 20.2442C12.9051 20.2497 12.7909 20.2502 12.5789 20.2502V22.0835ZM11.4208 22.0835H12.5789V20.2502H11.4208V22.0835ZM10.3221 21.9551C10.5272 22.0362 10.723 22.0623 10.8899 22.0734C11.0477 22.084 11.2332 22.0835 11.4208 22.0835V20.2502C11.2089 20.2502 11.0947 20.2497 11.0121 20.2442C10.9387 20.2393 10.9535 20.2333 10.9962 20.2502L10.3221 21.9551ZM9.36679 21.0906C9.57014 21.4848 9.90953 21.792 10.322 21.9551L10.9962 20.2502V20.2502L9.36679 21.0906ZM9.12967 20.01C9.14833 20.1967 9.16632 20.3813 9.1925 20.5373C9.22021 20.7022 9.26569 20.8946 9.36679 21.0906L10.9962 20.2502C11.0172 20.291 11.0127 20.3063 11.0005 20.2337C10.9868 20.1521 10.975 20.0385 10.9539 19.8276L9.12967 20.01ZM9.04263 19.1397C8.98464 19.0636 9.00309 19.03 9.03527 19.2088C9.06587 19.3789 9.0905 19.6184 9.12967 20.01L10.9539 19.8276C10.9178 19.4668 10.886 19.1419 10.8396 18.8841C10.7948 18.6351 10.7157 18.3101 10.5002 18.0277L9.04263 19.1397ZM9.04263 19.1397L10.5002 18.0277C10.1007 17.504 9.45103 17.2349 8.79826 17.3227L9.04263 19.1397ZM8.36562 19.6936C8.67024 19.4443 8.85704 19.2924 8.99892 19.1938C9.14812 19.0901 9.13739 19.1269 9.04263 19.1397L8.79826 17.3227C8.44617 17.37 8.16045 17.5439 7.95266 17.6883C7.73756 17.8378 7.48537 18.045 7.20468 18.2747L8.36562 19.6936ZM7.43388 20.29C7.64398 20.2228 7.81213 20.119 7.94838 20.022C8.07718 19.9302 8.22043 19.8124 8.36562 19.6936L7.20468 18.2747C7.04065 18.4089 6.95198 18.4808 6.88458 18.5288C6.82462 18.5715 6.83229 18.5575 6.87602 18.5436L7.43388 20.29ZM6.14714 20.2258C6.55417 20.4021 7.01133 20.4249 7.43389 20.29L6.87601 18.5436L6.87602 18.5436L6.14714 20.2258ZM5.27938 19.5397C5.41203 19.6723 5.54284 19.8038 5.66187 19.9079C5.78778 20.0181 5.94477 20.1381 6.14714 20.2258L6.87601 18.5436C6.91814 18.5618 6.92437 18.5765 6.86896 18.528C6.80667 18.4735 6.72561 18.3932 6.57574 18.2433L5.27938 19.5397ZM4.46039 18.7207L5.27938 19.5397L6.57574 18.2433L5.75675 17.4243L4.46039 18.7207ZM3.77427 17.8529C3.86196 18.0553 3.982 18.2123 4.09214 18.3382C4.19626 18.4572 4.32775 18.588 4.46039 18.7207L5.75675 17.4243C5.60689 17.2744 5.5265 17.1934 5.47201 17.1311C5.42354 17.0757 5.43823 17.0819 5.45648 17.124L3.77427 17.8529ZM3.71009 16.5661C3.57511 16.9887 3.59791 17.4459 3.77427 17.8529L5.45648 17.124L5.45648 17.124L3.71009 16.5661ZM4.30647 15.6344C4.18768 15.7796 4.06986 15.9229 3.9781 16.0517C3.88103 16.1879 3.77721 16.3561 3.7101 16.5661L5.45648 17.124C5.44251 17.1678 5.42851 17.1754 5.47123 17.1155C5.51925 17.0481 5.59118 16.9594 5.72539 16.7954L4.30647 15.6344ZM4.86037 14.9574C4.87311 14.8627 4.90994 14.852 4.80625 15.0012C4.70765 15.143 4.5557 15.3298 4.30647 15.6344L5.72539 16.7954C5.95504 16.5147 6.16224 16.2625 6.31172 16.0474C6.45612 15.8396 6.62997 15.5539 6.67733 15.2019L4.86037 14.9574ZM4.86037 14.9574H4.86037L6.67733 15.2019C6.76515 14.5491 6.49602 13.8993 5.97233 13.4998L4.86037 14.9574ZM3.99002 14.8704C4.38163 14.9096 4.62115 14.9342 4.7912 14.9648C4.97001 14.997 4.93638 15.0154 4.86037 14.9574L5.97233 13.4998C5.68989 13.2844 5.36493 13.2053 5.1159 13.1605C4.85811 13.1141 4.53329 13.0823 4.17244 13.0462L3.99002 14.8704ZM2.90954 14.6333C3.10555 14.7344 3.29785 14.7799 3.46282 14.8076C3.61877 14.8338 3.80337 14.8517 3.99002 14.8704L4.17244 13.0462C3.96156 13.0251 3.84801 13.0133 3.7664 12.9996C3.6938 12.9874 3.70912 12.9829 3.74992 13.0039L2.90954 14.6333ZM2.045 13.678C2.20811 14.0905 2.51528 14.43 2.90954 14.6333L3.74992 13.0039L3.74992 13.0039L2.045 13.678ZM1.91659 12.5793C1.91659 12.7669 1.91611 12.9523 1.92665 13.1101C1.9378 13.277 1.96392 13.4729 2.045 13.678L3.74992 13.0039C3.7668 13.0466 3.76081 13.0614 3.75591 12.988C3.75039 12.9054 3.74992 12.7912 3.74992 12.5793H1.91659ZM1.91659 11.4211V12.5793H3.74992V11.4211H1.91659ZM2.04507 10.3222C1.96394 10.5273 1.93781 10.7232 1.92665 10.8902C1.91611 11.048 1.91659 11.2335 1.91659 11.4211H3.74992C3.74992 11.2092 3.75039 11.095 3.75591 11.0124C3.76082 10.9389 3.76681 10.9537 3.74992 10.9964L2.04507 10.3222ZM2.90938 9.36711C2.51524 9.57044 2.20818 9.90974 2.04507 10.3222L3.74992 10.9964L3.74992 10.9964L2.90938 9.36711ZM3.99013 9.1299C3.80343 9.14857 3.61879 9.16656 3.46279 9.19276C3.29778 9.22047 3.10543 9.26597 2.90938 9.36711L3.74992 10.9964C3.70911 11.0175 3.69379 11.013 3.7664 11.0008C3.84804 10.9871 3.96162 10.9752 4.17255 10.9541L3.99013 9.1299ZM3.91737 9.14014L3.91736 9.14014L4.24532 10.9439L4.24533 10.9439L3.91737 9.14014ZM4.86071 9.04284C4.93673 8.98483 4.97038 9.00329 4.79153 9.03548C4.62144 9.06609 4.38186 9.09073 3.99014 9.1299L4.17256 10.9541C4.5335 10.918 4.85841 10.8862 5.11627 10.8398C5.36537 10.795 5.69041 10.7159 5.97289 10.5003L4.86071 9.04284ZM4.86071 9.04284L4.86071 9.04284L5.97289 10.5003C6.49637 10.1008 6.76541 9.45131 6.67771 8.7987L4.86071 9.04284ZM4.30663 8.36563C4.55593 8.67034 4.70794 8.85719 4.80657 8.99912C4.91029 9.14837 4.87345 9.13763 4.86071 9.04284L6.67771 8.79869C6.63039 8.44652 6.4565 8.16072 6.31206 7.95288C6.16253 7.73772 5.95527 7.48546 5.72555 7.2047L4.30663 8.36563ZM4.28275 8.33516L4.28276 8.33516L5.74942 7.23516L5.74942 7.23516L4.28275 8.33516ZM3.71006 7.43353C3.77717 7.64371 3.88103 7.81193 3.97813 7.94823C4.06992 8.07707 4.18779 8.22038 4.30663 8.36563L5.72555 7.20469C5.59128 7.04059 5.51932 6.95189 5.47128 6.88446C5.42854 6.82447 5.44256 6.83214 5.45653 6.87589L3.71006 7.43353ZM3.77422 6.14723C3.59797 6.55413 3.57518 7.01112 3.71006 7.43353L5.45653 6.87589L5.45653 6.87589L3.77422 6.14723ZM4.46054 5.27915C4.32785 5.41184 4.19631 5.5427 4.09216 5.66177C3.98198 5.78773 3.8619 5.94477 3.77422 6.14723L5.45653 6.87589C5.43827 6.91803 5.42357 6.92426 5.47206 6.86883C5.52656 6.80652 5.60699 6.72543 5.7569 6.57551L4.46054 5.27915ZM5.27942 4.46027L4.46054 5.27915L5.7569 6.57551L6.57578 5.75663L5.27942 4.46027ZM6.14718 3.77414C5.94481 3.86182 5.78782 3.98186 5.66191 4.09201C5.54288 4.19613 5.41207 4.32762 5.27942 4.46027L6.57578 5.75663C6.72565 5.60677 6.80671 5.52637 6.869 5.47188C6.92441 5.42341 6.91818 5.4381 6.87606 5.45636L6.14718 3.77414ZM7.43393 3.70996C7.01137 3.57498 6.55421 3.59778 6.14718 3.77414L6.87606 5.45636H6.87606L7.43393 3.70996ZM8.36573 4.3064C8.22052 4.18759 8.07725 4.06976 7.94844 3.97799C7.8122 3.88091 7.64404 3.77708 7.43393 3.70996L6.87606 5.45635C6.83231 5.44238 6.82465 5.42838 6.88463 5.47111C6.95205 5.51915 7.04074 5.59109 7.2048 5.72532L8.36573 4.3064ZM8.33527 4.28253L8.33526 4.28253L7.23526 5.74919L7.23527 5.7492L8.33527 4.28253ZM9.04267 4.86026C9.13741 4.87302 9.14814 4.90983 8.99895 4.80614C8.85708 4.70754 8.6703 4.5556 8.36574 4.3064L7.2048 5.72532C7.48544 5.95494 7.73758 6.16211 7.95263 6.31157C8.16035 6.45595 8.446 6.62979 8.79798 6.67719L9.04267 4.86026ZM9.04267 4.86026V4.86026L8.79798 6.67719C9.45096 6.76513 10.1009 6.49591 10.5005 5.972L9.04267 4.86026ZM9.12968 3.99015C9.09053 4.38166 9.06591 4.62111 9.03532 4.79111C9.00315 4.96987 8.98471 4.93626 9.04267 4.86026L10.5005 5.972C10.7158 5.68961 10.7949 5.36474 10.8397 5.11578C10.886 4.85805 10.9178 4.53332 10.9539 4.17257L9.12968 3.99015ZM9.12513 4.08136V4.08136H10.9585V4.08136H9.12513ZM9.36669 2.90995C9.26565 3.10591 9.22018 3.29817 9.19249 3.46309C9.16632 3.619 9.14834 3.80355 9.12968 3.99014L10.9539 4.17257C10.975 3.96175 10.9868 3.84823 11.0005 3.76664C11.0127 3.69406 11.0172 3.70937 10.9962 3.75016L9.36669 2.90995ZM10.3223 2.04518C9.90957 2.20829 9.57006 2.51555 9.36669 2.90995L10.9962 3.75016L10.9962 3.75016L10.3223 2.04518ZM11.4207 1.91683C11.2331 1.91683 11.0477 1.91636 10.89 1.92689C10.7231 1.93803 10.5273 1.96414 10.3223 2.04518L10.9962 3.75016C10.9535 3.76703 10.9387 3.76105 11.0121 3.75615C11.0947 3.75064 11.2088 3.75016 11.4207 3.75016V1.91683ZM12.579 1.91683H11.4207V3.75016H12.579V1.91683ZM13.6778 2.04525C13.4727 1.96416 13.2768 1.93804 13.1099 1.92689C12.9521 1.91636 12.7666 1.91683 12.579 1.91683V3.75016C12.791 3.75016 12.9051 3.75064 12.9877 3.75615C13.0612 3.76106 13.0464 3.76704 13.0037 3.75016L13.6778 2.04525ZM14.6331 2.90978C14.4297 2.51552 14.0903 2.20836 13.6778 2.04525L13.0037 3.75016L13.0037 3.75016L14.6331 2.90978ZM14.8702 3.99026C14.8515 3.80361 14.8335 3.61901 14.8073 3.46306C14.7796 3.29809 14.7341 3.10579 14.6331 2.90978L13.0037 3.75016C12.9826 3.70936 12.9871 3.69405 12.9993 3.76665C13.013 3.84826 13.0248 3.96181 13.0459 4.17269L14.8702 3.99026ZM14.7498 12C14.7498 13.5188 13.5185 14.75 11.9998 14.75V16.5833C14.5311 16.5833 16.5831 14.5313 16.5831 12H14.7498ZM11.9998 9.25C13.5185 9.25 14.7498 10.4812 14.7498 12H16.5831C16.5831 9.4687 14.5311 7.41667 11.9998 7.41667V9.25ZM9.24976 12C9.24976 10.4812 10.481 9.25 11.9998 9.25V7.41667C9.46845 7.41667 7.41642 9.4687 7.41642 12H9.24976ZM11.9998 14.75C10.481 14.75 9.24976 13.5188 9.24976 12H7.41642C7.41642 14.5313 9.46845 16.5833 11.9998 16.5833V14.75Z" fill="#51605E"/>
</svg>
