<svg width="23" height="19" viewBox="0 0 23 19" fill="none" xmlns="http://www.w3.org/2000/svg">
<g id="Group 10319">
<g id="Group 10320">
<g id="Ellipse 1387">
<circle cx="7.02997" cy="5.92108" r="2.81448" stroke="#305953" stroke-width="1.90655" stroke-linecap="round" stroke-linejoin="round"/>
<circle cx="7.02997" cy="5.92108" r="2.81448" stroke="black" stroke-opacity="0.2" stroke-width="1.90655" stroke-linecap="round" stroke-linejoin="round"/>
</g>
<g id="Ellipse 1388">
<circle cx="14.9987" cy="3.76776" r="2.81448" stroke="#305953" stroke-width="1.90655" stroke-linecap="round" stroke-linejoin="round"/>
<circle cx="14.9987" cy="3.76776" r="2.81448" stroke="black" stroke-opacity="0.2" stroke-width="1.90655" stroke-linecap="round" stroke-linejoin="round"/>
</g>
<g id="Vector 399">
<path d="M1 17.2241V14.6184C1 13.1442 2.19502 11.9492 3.66914 11.9492H10.7645C12.2386 11.9492 13.4336 13.1442 13.4336 14.6184V17.2241" stroke="#305953" stroke-width="1.90655" stroke-linecap="round" stroke-linejoin="round"/>
<path d="M1 17.2241V14.6184C1 13.1442 2.19502 11.9492 3.66914 11.9492H10.7645C12.2386 11.9492 13.4336 13.1442 13.4336 14.6184V17.2241" stroke="black" stroke-opacity="0.2" stroke-width="1.90655" stroke-linecap="round" stroke-linejoin="round"/>
</g>
<g id="Vector 400">
<path d="M21.4024 15.0713V12.4655C21.4024 10.9914 20.2073 9.79639 18.7332 9.79639H11.6062C10.1496 9.79639 8.96875 10.9772 8.96875 12.4338V12.4338" stroke="#305953" stroke-width="1.90655" stroke-linecap="round" stroke-linejoin="round"/>
<path d="M21.4024 15.0713V12.4655C21.4024 10.9914 20.2073 9.79639 18.7332 9.79639H11.6062C10.1496 9.79639 8.96875 10.9772 8.96875 12.4338V12.4338" stroke="black" stroke-opacity="0.2" stroke-width="1.90655" stroke-linecap="round" stroke-linejoin="round"/>
</g>
</g>
</g>
</svg>
