<svg width="19" height="20" viewBox="0 0 19 20" fill="none" xmlns="http://www.w3.org/2000/svg">
<g id="Person">
<g id="Person_2">
<path d="M17.5 19V16.8C17.5 15.633 17.0654 14.5139 16.2918 13.6887C15.5182 12.8636 14.469 12.4 13.375 12.4H5.125C4.03098 12.4 2.98177 12.8636 2.20818 13.6887C1.4346 14.5139 1 15.633 1 16.8V19M13 4.75001C13 6.82108 11.3211 8.50001 9.25 8.50001C7.17893 8.50001 5.5 6.82108 5.5 4.75001C5.5 2.67894 7.17893 1 9.25 1C11.3211 1 13 2.67894 13 4.75001Z" stroke="#305953" stroke-width="2" stroke-linecap="round" stroke-linejoin="round"/>
<path d="M17.5 19V16.8C17.5 15.633 17.0654 14.5139 16.2918 13.6887C15.5182 12.8636 14.469 12.4 13.375 12.4H5.125C4.03098 12.4 2.98177 12.8636 2.20818 13.6887C1.4346 14.5139 1 15.633 1 16.8V19M13 4.75001C13 6.82108 11.3211 8.50001 9.25 8.50001C7.17893 8.50001 5.5 6.82108 5.5 4.75001C5.5 2.67894 7.17893 1 9.25 1C11.3211 1 13 2.67894 13 4.75001Z" stroke="black" stroke-opacity="0.2" stroke-width="2" stroke-linecap="round" stroke-linejoin="round"/>
</g>
</g>
</svg>
